<svg data-v-423bf9ae="" xmlns="http://www.w3.org/2000/svg" viewBox="0 0 441 110" class="iconLeft"><!----><!----><!----><g data-v-423bf9ae="" id="af2a7848-8682-46a4-adf9-299e1bc64834" fill="#071251" transform="matrix(5.9940058569511425,0,0,5.9940058569511425,113.43126796409638,5.401102129067652)"><path d="M4.03 3.23L4.03 3.23Q6.20 3.23 7.36 4.00Q8.53 4.76 8.53 6.50L8.53 6.50Q8.53 8.25 7.35 9.02Q6.17 9.80 3.99 9.80L3.99 9.80L3.30 9.80L3.30 13.05L1.12 13.05L1.12 3.49Q1.83 3.35 2.63 3.29Q3.43 3.23 4.03 3.23ZM4.17 5.10L4.17 5.10Q3.93 5.10 3.70 5.11Q3.47 5.12 3.30 5.14L3.30 5.14L3.30 7.94L3.99 7.94Q5.12 7.94 5.70 7.63Q6.27 7.32 6.27 6.48L6.27 6.48Q6.27 6.08 6.13 5.81Q5.98 5.54 5.71 5.38Q5.43 5.22 5.04 5.16Q4.65 5.10 4.17 5.10ZM12.53 11.59L12.53 11.59Q12.84 11.59 13.12 11.58Q13.40 11.56 13.57 11.54L13.57 11.54L13.57 9.95Q13.44 9.93 13.19 9.90Q12.94 9.87 12.73 9.87L12.73 9.87Q12.43 9.87 12.17 9.90Q11.91 9.94 11.72 10.04Q11.52 10.14 11.41 10.30Q11.30 10.47 11.30 10.72L11.30 10.72Q11.30 11.21 11.63 11.40Q11.96 11.59 12.53 11.59ZM12.36 5.49L12.36 5.49Q13.29 5.49 13.90 5.70Q14.52 5.91 14.89 6.30Q15.26 6.69 15.41 7.25Q15.57 7.81 15.57 8.50L15.57 8.50L15.57 12.84Q15.12 12.94 14.32 13.07Q13.52 13.20 12.39 13.20L12.39 13.20Q11.68 13.20 11.10 13.08Q10.51 12.95 10.09 12.66Q9.67 12.38 9.45 11.91Q9.23 11.45 9.23 10.78L9.23 10.78Q9.23 10.14 9.49 9.69Q9.74 9.24 10.18 8.97Q10.61 8.71 11.17 8.59Q11.73 8.47 12.33 8.47L12.33 8.47Q12.74 8.47 13.05 8.50Q13.37 8.54 13.57 8.60L13.57 8.60L13.57 8.40Q13.57 7.87 13.24 7.55Q12.92 7.22 12.12 7.22L12.12 7.22Q11.59 7.22 11.07 7.30Q10.56 7.38 10.18 7.52L10.18 7.52L9.91 5.84Q10.09 5.78 10.37 5.72Q10.64 5.66 10.96 5.61Q11.28 5.56 11.64 5.52Q12.00 5.49 12.36 5.49ZM19.57 11.55L19.57 11.55Q20.15 11.55 20.38 11.44Q20.62 11.33 20.62 11.00L20.62 11.00Q20.62 10.75 20.31 10.56Q20.01 10.37 19.38 10.14L19.38 10.14Q18.89 9.95 18.49 9.76Q18.09 9.56 17.81 9.29Q17.53 9.02 17.37 8.64Q17.22 8.26 17.22 7.73L17.22 7.73Q17.22 6.69 17.99 6.09Q18.76 5.49 20.10 5.49L20.10 5.49Q20.78 5.49 21.39 5.61Q22.01 5.73 22.37 5.87L22.37 5.87L22.01 7.49Q21.64 7.36 21.22 7.27Q20.79 7.17 20.26 7.17L20.26 7.17Q19.28 7.17 19.28 7.71L19.28 7.71Q19.28 7.84 19.32 7.94Q19.36 8.04 19.49 8.13Q19.61 8.22 19.83 8.32Q20.05 8.43 20.38 8.55L20.38 8.55Q21.07 8.81 21.52 9.05Q21.97 9.30 22.23 9.58Q22.48 9.87 22.59 10.22Q22.69 10.57 22.69 11.03L22.69 11.03Q22.69 12.12 21.88 12.68Q21.06 13.24 19.56 13.24L19.56 13.24Q18.58 13.24 17.93 13.08Q17.28 12.91 17.02 12.80L17.02 12.80L17.37 11.10Q17.91 11.31 18.47 11.43Q19.03 11.55 19.57 11.55ZM26.36 11.55L26.36 11.55Q26.94 11.55 27.17 11.44Q27.41 11.33 27.41 11.00L27.41 11.00Q27.41 10.75 27.10 10.56Q26.80 10.37 26.17 10.14L26.17 10.14Q25.68 9.95 25.28 9.76Q24.88 9.56 24.60 9.29Q24.32 9.02 24.16 8.64Q24.01 8.26 24.01 7.73L24.01 7.73Q24.01 6.69 24.78 6.09Q25.55 5.49 26.89 5.49L26.89 5.49Q27.57 5.49 28.18 5.61Q28.80 5.73 29.16 5.87L29.16 5.87L28.80 7.49Q28.43 7.36 28.01 7.27Q27.58 7.17 27.05 7.17L27.05 7.17Q26.07 7.17 26.07 7.71L26.07 7.71Q26.07 7.84 26.11 7.94Q26.15 8.04 26.28 8.13Q26.40 8.22 26.62 8.32Q26.84 8.43 27.17 8.55L27.17 8.55Q27.86 8.81 28.31 9.05Q28.76 9.30 29.02 9.58Q29.27 9.87 29.38 10.22Q29.48 10.57 29.48 11.03L29.48 11.03Q29.48 12.12 28.66 12.68Q27.85 13.24 26.35 13.24L26.35 13.24Q25.37 13.24 24.72 13.08Q24.07 12.91 23.81 12.80L23.81 12.80L24.16 11.10Q24.70 11.31 25.26 11.43Q25.82 11.55 26.36 11.55ZM39.37 13.05L36.75 13.05Q36.34 12.24 35.86 11.40Q35.38 10.57 34.75 9.70L34.75 9.70Q34.55 9.95 34.25 10.40Q33.95 10.85 33.65 11.35Q33.35 11.86 33.08 12.32Q32.82 12.78 32.69 13.05L32.69 13.05L30.20 13.05Q30.81 11.91 31.63 10.67Q32.45 9.42 33.46 8.02L33.46 8.02L30.34 3.35L32.98 3.35L34.87 6.37L36.72 3.35L39.21 3.35L36.13 8.05Q37.31 9.58 38.11 10.87Q38.91 12.17 39.37 13.05L39.37 13.05ZM39.72 9.42L39.72 9.42Q39.72 8.44 40.02 7.71Q40.32 6.97 40.81 6.48Q41.30 5.99 41.94 5.74Q42.57 5.49 43.25 5.49L43.25 5.49Q44.81 5.49 45.72 6.45Q46.63 7.41 46.63 9.27L46.63 9.27Q46.63 9.45 46.62 9.67Q46.61 9.88 46.59 10.05L46.59 10.05L41.86 10.05Q41.93 10.70 42.46 11.07Q42.99 11.45 43.89 11.45L43.89 11.45Q44.46 11.45 45.02 11.35Q45.57 11.24 45.92 11.09L45.92 11.09L46.20 12.78Q46.03 12.87 45.75 12.95Q45.47 13.03 45.13 13.10Q44.79 13.16 44.39 13.20Q44.00 13.24 43.61 13.24L43.61 13.24Q42.62 13.24 41.88 12.95Q41.15 12.66 40.66 12.14Q40.18 11.63 39.95 10.93Q39.72 10.23 39.72 9.42ZM41.86 8.62L44.62 8.62Q44.60 8.36 44.53 8.11Q44.45 7.85 44.29 7.66Q44.13 7.46 43.88 7.34Q43.64 7.21 43.27 7.21L43.27 7.21Q42.92 7.21 42.67 7.33Q42.42 7.45 42.25 7.64Q42.08 7.84 41.99 8.10Q41.90 8.36 41.86 8.62L41.86 8.62ZM48.24 13.05L48.24 5.94Q48.78 5.78 49.62 5.65Q50.46 5.52 51.38 5.52L51.38 5.52Q52.32 5.52 52.94 5.76Q53.56 6.01 53.93 6.45Q54.29 6.90 54.45 7.52Q54.60 8.13 54.60 8.89L54.60 8.89L54.60 13.05L52.51 13.05L52.51 9.14Q52.51 8.13 52.25 7.71Q51.98 7.29 51.25 7.29L51.25 7.29Q51.03 7.29 50.78 7.31Q50.53 7.34 50.33 7.36L50.33 7.36L50.33 13.05L48.24 13.05Z"></path></g><!----><g data-v-423bf9ae="" id="019b3f60-093c-4e3c-940f-fe4659d2b1af" transform="matrix(1.1031444125705294,0,0,1.1031444125705294,-4.547775102090796,0.2382582256489627)" stroke="none" fill="#071251"><path d="M92.115 16.646a187.821 187.821 0 01-14.671-4.095C68.639 9.696 58.204 5.539 50.082 0 32.712 11.713 4.61 17.369 4.61 17.369s.084 24.041 1.591 33.582c1.435 9.08 5.127 16.719 9.795 23.048.315.428.635.851.959 1.266a65.9 65.9 0 006.841 7.476c.385.362.77.719 1.158 1.066 12 10.809 25.127 15.476 25.127 15.476S88.322 85.631 93.8 50.951c1.508-9.542 1.591-33.582 1.591-33.582s-1.208-.24-3.276-.723zm-1.032 33.875c-1.179 7.459-4.077 14.507-8.617 20.946-3.669 5.206-8.416 10.037-14.109 14.362-8.006 6.08-15.686 9.453-18.276 10.501-2.603-1.046-10.315-4.421-18.357-10.504a74.78 74.78 0 01-5.98-5.032 63.014 63.014 0 01-6.827-7.493 62.665 62.665 0 01-.95-1.272c-.136-.188-.275-.375-.409-.565-4.555-6.438-7.461-13.484-8.64-20.942-1.192-7.55-1.475-24.8-1.539-30.941a193.131 193.131 0 0014.274-3.878c11.615-3.635 21.164-7.805 28.42-12.41 6.583 4.224 15.037 8.063 25.191 11.439.552.184 1.112.366 1.675.547.493.158.988.317 1.489.473a190.128 190.128 0 0011.403 3.178c1.088.266 2.027.485 2.79.657-.063 6.148-.346 23.388-1.538 30.934z"></path><path d="M85.14 21.398a159.675 159.675 0 01-12.863-3.679C65.041 15.306 56.71 11.894 50.15 7.421c-14.773 9.961-38.673 14.772-38.673 14.772s.07 20.447 1.353 28.561c1.154 7.306 4.026 13.513 7.693 18.719.307.437.62.864.937 1.286 2.106 2.798 4.434 5.29 6.827 7.493.389.356.78.707 1.171 1.05C39.474 88.065 50.15 91.86 50.15 91.86s32.524-11.61 37.184-41.106c1.282-8.114 1.352-28.561 1.352-28.561s-.63-.125-1.742-.375c-.506-.113-1.111-.254-1.804-.42zm1.965 2.068c-.042 4.588-.261 20.3-1.325 27.043-1.021 6.471-3.537 12.58-7.475 18.16-3.172 4.495-7.271 8.664-12.185 12.39-7.185 5.449-14.056 8.362-15.973 9.12-1.916-.751-8.759-3.638-15.965-9.065a65.754 65.754 0 01-3.61-2.925 67.063 67.063 0 01-1.172-1.052c-2.578-2.367-4.859-4.876-6.818-7.501a45.399 45.399 0 01-.675-.925c-.087-.123-.169-.247-.255-.368-3.821-5.493-6.269-11.489-7.271-17.834-1.066-6.745-1.283-22.464-1.325-27.047a161.006 161.006 0 0012.686-3.418c10.038-3.142 18.24-6.75 24.402-10.736 5.437 3.556 12.448 6.794 20.889 9.654a164.455 164.455 0 003.454 1.124 161.338 161.338 0 0011.141 3.046c.577.133 1.071.244 1.477.334z"></path><path d="M61.838 40.458h-.983v-3.645c0-5.891-4.793-10.685-10.685-10.685-5.891 0-10.684 4.793-10.684 10.685v3.645h-.982a3.537 3.537 0 00-3.538 3.537v3.666h30.41v-3.666a3.54 3.54 0 00-3.538-3.537zm-5.307 0H43.809v-3.645a6.368 6.368 0 016.361-6.361 6.369 6.369 0 016.362 6.361v3.645zM34.965 49.233h30.41v7.785h-30.41zM34.965 61.589a3.538 3.538 0 003.538 3.538h23.335a3.538 3.538 0 003.537-3.538V58.59h-30.41v2.999z"></path></g><!----></svg>